<?xml version="1.0" standalone="no"?>
<!DOCTYPE svg PUBLIC "-//W3C//DTD SVG 20010904//EN"
 "http://www.w3.org/TR/2001/REC-SVG-20010904/DTD/svg10.dtd">
<svg version="1.0" xmlns="http://www.w3.org/2000/svg"
 width="432.000000pt" height="475.000000pt" viewBox="0 0 432.000000 475.000000"
 preserveAspectRatio="xMidYMid meet">

<g transform="translate(0.000000,475.000000) scale(0.100000,-0.100000)"
fill="#000000" stroke="none">
<path d="M0 2375 l0 -2375 2160 0 2160 0 -1 798 c-1 490 -4 782 -10 759 -28
-119 -114 -186 -240 -187 -121 0 -218 75 -250 193 -18 67 -6 168 25 221 109
186 401 128 461 -91 11 -40 13 197 14 1505 l1 1552 -1122 0 c-855 -1 -1118 -3
-1103 -12 11 -7 38 -13 60 -15 108 -9 190 -30 230 -57 16 -11 36 -21 45 -21
44 -4 50 -6 50 -20 0 -10 10 -15 30 -15 41 0 170 -73 170 -97 0 -7 9 -13 19
-13 20 0 81 -54 81 -71 0 -5 7 -9 15 -9 13 0 44 -29 143 -136 12 -14 22 -31
22 -39 0 -8 8 -19 18 -24 10 -5 24 -22 32 -38 8 -15 17 -30 21 -33 18 -17 49
-82 49 -104 0 -17 4 -25 11 -21 6 4 13 -2 16 -13 3 -11 18 -26 33 -32 79 -33
190 -115 190 -140 0 -24 26 -50 50 -50 33 0 220 -217 220 -256 0 -6 9 -19 20
-29 11 -10 20 -31 20 -47 0 -20 9 -37 30 -54 17 -15 35 -45 44 -72 8 -26 23
-68 34 -93 11 -25 22 -65 26 -89 3 -23 10 -48 15 -54 12 -16 20 -93 10 -103
-5 -5 -11 -47 -14 -93 -3 -47 -8 -105 -11 -130 -2 -25 -6 -76 -8 -115 -6 -99
-16 -155 -32 -187 -8 -16 -12 -28 -10 -28 3 0 0 -13 -5 -30 -6 -17 -15 -30
-20 -30 -5 0 -9 -8 -9 -18 0 -10 -12 -28 -27 -39 -16 -11 -37 -43 -47 -69 -11
-27 -24 -53 -28 -59 -5 -5 -17 -22 -29 -37 -11 -16 -26 -28 -33 -28 -7 0 -25
-13 -41 -30 -28 -30 -29 -31 -30 -164 0 -88 -5 -139 -13 -148 -7 -9 -8 -18 -2
-24 6 -6 4 -27 -5 -57 -8 -26 -11 -47 -8 -47 3 0 1 -6 -5 -12 -12 -15 -12 -16
-12 -64 0 -27 -5 -37 -19 -41 -13 -3 -22 -17 -26 -44 -4 -21 -12 -39 -18 -39
-8 0 -8 -3 0 -11 9 -9 5 -21 -18 -48 -16 -19 -29 -41 -29 -48 0 -7 -4 -13 -9
-13 -5 0 -12 -14 -16 -30 -4 -17 -11 -30 -16 -30 -5 0 -9 -7 -9 -15 0 -8 -4
-15 -10 -15 -5 0 -10 -11 -10 -25 0 -19 -9 -29 -35 -42 -19 -9 -37 -25 -41
-35 -3 -10 -14 -18 -24 -18 -10 0 -21 -10 -25 -22 -6 -20 -8 -20 -12 -6 -2 10
-6 18 -8 18 -12 0 -95 -65 -95 -75 0 -5 -9 -16 -20 -23 -12 -7 -20 -8 -20 -2
0 21 -31 9 -40 -15 -5 -14 -13 -25 -18 -25 -5 0 -15 -11 -22 -25 -8 -14 -22
-25 -34 -25 -12 0 -36 -16 -55 -35 -19 -19 -37 -35 -42 -35 -4 0 -45 -18 -92
-39 -46 -22 -94 -41 -108 -43 -13 -2 -28 -6 -34 -10 -19 -11 -147 -39 -168
-37 -12 2 -33 -3 -47 -10 -15 -9 -25 -10 -27 -4 -3 7 -19 5 -45 -4 -42 -14
-128 -15 -128 -1 0 4 -9 3 -19 -4 -15 -9 -28 -9 -55 -1 -23 7 -38 8 -42 1 -3
-5 -13 -6 -23 -3 -9 4 -45 9 -80 11 -36 2 -67 8 -71 14 -4 6 -14 8 -23 4 -9
-3 -40 -1 -69 6 -52 11 -73 18 -133 46 -16 7 -43 16 -60 20 -16 4 -38 15 -49
25 -10 10 -33 21 -50 25 -43 9 -96 42 -96 60 0 11 -6 13 -20 9 -14 -5 -20 -2
-20 9 0 9 4 16 9 16 5 0 11 6 14 13 3 8 -11 13 -47 14 -28 1 -52 7 -54 12 -7
21 -49 61 -74 70 -16 6 -28 17 -28 26 0 8 -5 15 -11 15 -5 0 -8 4 -4 9 3 5 -5
17 -17 25 -20 14 -21 19 -10 36 11 18 10 20 -13 20 -16 0 -25 6 -25 15 0 8 -7
15 -15 15 -8 0 -15 5 -15 11 0 6 7 9 15 5 8 -3 15 -1 15 4 0 6 -4 10 -9 10 -5
0 -22 5 -36 10 -20 7 -24 14 -18 23 20 25 21 54 2 66 -11 6 -19 19 -19 29 0
10 -7 28 -16 40 -8 12 -12 27 -9 33 4 5 0 18 -8 27 -19 22 -30 66 -32 127 -1
27 -7 51 -14 53 -6 2 -11 17 -11 33 0 18 4 28 10 24 18 -11 11 49 -9 79 -11
17 -17 34 -15 38 3 5 1 14 -4 21 -5 7 -12 47 -15 90 -4 51 -11 85 -21 96 -9
10 -16 27 -16 39 0 11 -5 33 -11 49 -6 15 -15 53 -20 83 -5 30 -13 75 -19 100
-6 25 -16 79 -24 120 -22 115 -50 220 -58 220 -10 0 -33 -56 -42 -104 -6 -29
-10 -36 -16 -25 -6 9 -8 -1 -6 -30 3 -39 -1 -60 -22 -121 -3 -8 -6 -24 -8 -35
-1 -11 -5 -45 -8 -75 -4 -30 -11 -66 -16 -80 -5 -14 -11 -41 -13 -60 -2 -20
-5 -40 -8 -45 -3 -6 -4 -30 -2 -55 2 -25 5 -76 7 -115 3 -61 28 -162 57 -233
5 -13 7 -28 3 -33 -3 -5 2 -12 10 -15 10 -4 16 -18 16 -39 0 -50 21 -132 39
-153 26 -30 42 -62 36 -73 -4 -5 4 -18 18 -29 15 -12 27 -34 31 -57 3 -21 9
-49 12 -63 5 -23 4 -24 -9 -7 -18 22 -26 22 -20 -1 2 -11 22 -26 43 -36 42
-18 57 -41 33 -50 -11 -4 -14 -2 -9 9 4 10 -1 15 -14 15 -23 0 -23 0 -11 -33
8 -20 15 -24 38 -20 26 4 27 3 10 -10 -16 -14 -15 -16 15 -44 36 -33 49 -59
23 -49 -18 7 -12 -7 16 -39 75 -83 97 -105 105 -105 6 0 26 -16 45 -36 62 -65
109 -97 157 -105 25 -5 54 -18 64 -29 10 -11 27 -20 38 -20 10 0 35 -11 54
-24 19 -13 54 -26 77 -30 23 -4 51 -13 62 -21 12 -8 35 -15 52 -15 16 -1 41
-7 55 -15 14 -8 37 -14 52 -15 15 0 62 -11 105 -25 45 -14 79 -20 81 -15 2 6
8 8 13 4 13 -8 94 -16 164 -16 46 1 54 -1 35 -8 -15 -5 13 -6 70 -3 52 4 111
5 130 4 88 -6 170 -2 191 10 13 7 51 13 84 13 45 1 69 7 92 24 17 12 38 22 47
22 9 0 16 6 16 13 0 8 25 21 61 31 34 9 78 24 98 33 20 9 39 15 44 15 4 -1 7
3 7 9 0 5 4 8 9 4 6 -3 15 4 21 15 6 11 17 20 25 20 7 0 15 3 17 8 6 13 67 52
82 52 8 0 27 16 42 35 14 19 31 35 36 35 21 0 85 35 114 62 17 16 38 30 45 31
22 4 40 18 34 27 -6 10 23 22 36 14 13 -8 11 -24 -3 -21 -8 1 -13 -8 -13 -22
0 -15 -10 -28 -28 -37 -23 -12 -26 -12 -21 0 3 8 1 17 -5 20 -5 4 -12 -2 -16
-13 -3 -11 -12 -22 -20 -25 -19 -7 -20 -45 -2 -42 25 3 117 89 143 133 18 31
34 45 55 50 27 5 35 19 29 48 -1 5 2 7 5 3 23 -23 105 76 105 127 0 39 47 115
91 145 19 13 37 28 40 33 3 4 27 10 52 13 39 4 47 2 57 -15 6 -12 19 -21 29
-21 10 0 24 -7 31 -15 7 -8 25 -15 40 -15 27 0 60 -26 60 -48 0 -7 6 -12 14
-12 32 0 31 -163 -3 -225 -11 -22 -21 -45 -21 -52 0 -7 -4 -13 -10 -13 -5 0
-16 -21 -23 -47 -10 -34 -19 -47 -30 -45 -14 2 -77 -75 -77 -95 0 -5 -25 -35
-55 -67 -30 -32 -55 -62 -55 -67 0 -12 -38 -49 -50 -49 -5 0 -10 -11 -10 -25
0 -19 -8 -28 -34 -39 -19 -8 -39 -24 -46 -35 -6 -12 -20 -21 -32 -21 -12 0
-18 -3 -15 -7 11 -11 -14 -32 -30 -26 -12 5 -15 2 -10 -10 4 -12 2 -14 -10
-10 -12 5 -14 3 -8 -7 5 -8 4 -11 -3 -6 -6 3 -32 -6 -59 -22 -26 -16 -74 -40
-105 -55 -32 -15 -82 -38 -111 -52 -30 -14 -66 -25 -80 -25 -15 0 -27 -4 -27
-8 0 -4 -21 -13 -47 -20 -27 -8 -55 -17 -63 -21 -8 -4 -49 -18 -90 -31 -41
-12 -82 -28 -90 -35 -30 -24 -79 -37 -117 -31 -27 5 -44 2 -58 -8 -11 -9 -41
-16 -67 -16 -27 0 -48 -4 -48 -9 0 -5 -16 -7 -36 -5 -30 4 -35 2 -30 -11 3 -9
0 -15 -9 -15 -8 0 -15 4 -15 9 0 12 -30 22 -42 14 -9 -5 -196 -10 -485 -14
-18 0 -33 -5 -33 -10 0 -6 -7 -3 -16 5 -15 16 -44 21 -96 17 -15 -1 -37 3 -49
9 -17 10 -23 9 -30 -1 -6 -10 -9 -11 -9 -1 0 8 -16 12 -44 12 -27 0 -51 6 -60
15 -8 9 -19 14 -23 13 -4 -1 -25 6 -45 16 -21 10 -45 16 -53 12 -8 -3 -32 3
-52 13 -21 11 -60 27 -88 37 -27 9 -87 34 -133 56 -45 21 -93 38 -106 38 -33
0 -112 35 -123 55 -5 9 -47 42 -94 73 -46 32 -90 69 -96 84 -7 14 -24 29 -38
32 -18 5 -25 13 -25 31 0 14 -4 25 -9 25 -15 0 -90 80 -113 121 -12 22 -27 39
-32 39 -14 0 -156 147 -156 161 0 6 -11 32 -24 58 -13 25 -30 60 -38 76 -7 17
-19 34 -26 38 -7 5 -10 13 -6 18 3 5 -5 29 -19 52 -13 23 -27 55 -31 72 -4 16
-16 48 -27 72 -10 23 -19 51 -19 62 0 10 -4 21 -10 23 -9 3 -26 81 -37 166 -3
23 -9 42 -13 42 -5 0 -12 20 -16 45 -3 25 -10 45 -14 45 -4 0 -6 20 -4 44 2
25 0 47 -5 51 -6 3 -6 17 -1 34 4 16 6 31 4 34 -3 2 -5 22 -6 43 0 21 -4 44
-8 49 -11 14 -14 67 -5 88 4 10 5 21 1 24 -3 3 -1 12 5 19 6 8 6 14 0 18 -11
7 -4 150 9 186 5 14 9 34 9 45 0 11 6 47 14 80 8 33 15 73 15 88 0 16 4 38 9
50 9 19 47 140 83 259 6 21 16 40 21 43 5 4 9 17 9 29 0 13 10 38 23 57 12 19
30 59 40 89 10 30 37 80 62 110 24 30 63 88 86 129 44 80 43 78 89 132 30 37
39 56 20 44 -12 -7 -8 83 3 102 4 6 14 59 22 119 8 59 26 137 40 173 14 36 33
84 41 106 9 22 26 63 40 90 13 28 24 58 24 67 0 9 5 18 10 20 6 2 16 19 23 39
15 42 92 142 125 160 14 8 22 22 22 39 0 21 13 37 55 71 31 24 73 59 93 78 20
19 51 40 67 48 46 22 74 38 98 59 21 18 47 34 96 60 13 7 39 10 57 7 19 -3 39
-1 46 5 17 14 132 52 157 52 11 0 24 7 29 15 6 12 32 16 108 20 109 4 227 15
233 21 2 2 -426 4 -952 4 l-957 0 0 -2375z"/>
<path d="M1933 4743 c9 -2 23 -2 30 0 6 3 -1 5 -18 5 -16 0 -22 -2 -12 -5z"/>
<path d="M2038 4743 c6 -2 18 -2 25 0 6 3 1 5 -13 5 -14 0 -19 -2 -12 -5z"/>
<path d="M1828 4380 c-16 -10 -33 -13 -126 -27 -23 -3 -45 -10 -48 -14 -3 -5
-23 -9 -44 -9 -21 0 -40 -5 -42 -11 -2 -6 -21 -12 -43 -14 -22 -2 -41 -9 -43
-15 -5 -15 -131 -72 -142 -65 -6 4 -10 1 -10 -4 0 -6 -7 -11 -15 -11 -8 0 -15
-6 -15 -14 0 -8 -13 -23 -29 -32 -17 -10 -28 -21 -25 -26 3 -5 -6 -7 -20 -4
-20 4 -27 -1 -38 -24 -7 -16 -21 -31 -32 -34 -11 -3 -17 -8 -14 -11 6 -6 -34
-49 -80 -86 -13 -10 -22 -24 -20 -30 2 -7 -9 -26 -25 -42 -26 -27 -59 -87 -56
-103 0 -4 -4 -10 -9 -13 -6 -3 -12 -29 -15 -57 -2 -29 -8 -58 -13 -65 -4 -8
-9 -20 -10 -29 -1 -8 -9 -36 -18 -62 -15 -42 -15 -52 0 -115 8 -37 16 -77 17
-88 0 -11 7 -28 15 -37 13 -16 12 -19 -14 -29 l-29 -11 28 -10 c15 -5 27 -14
27 -19 0 -5 7 -9 15 -9 8 0 15 -4 15 -10 0 -5 7 -10 16 -10 10 0 14 -6 11 -14
-3 -8 -3 -16 1 -18 4 -2 20 -20 36 -41 15 -21 30 -36 33 -33 11 11 44 -16 39
-31 -5 -11 -1 -14 13 -10 11 3 18 -1 17 -9 0 -7 1 -12 4 -12 3 1 16 -4 28 -11
19 -10 22 -18 17 -38 -5 -20 -3 -24 9 -19 9 3 23 9 31 12 10 4 15 0 15 -11 0
-13 6 -16 24 -11 16 4 26 1 29 -8 4 -10 0 -12 -15 -8 -14 3 -19 1 -14 -6 9
-16 31 -15 48 1 20 18 48 17 48 -2 0 -22 23 -71 33 -71 4 0 7 4 7 9 0 9 123
-15 152 -30 10 -5 35 -8 55 -8 61 3 183 -12 189 -23 3 -5 17 -2 31 8 20 12 38
15 77 10 41 -4 75 1 168 28 64 18 130 43 146 55 17 11 34 21 39 21 15 0 121
58 159 86 21 16 40 29 43 29 7 0 179 177 198 206 10 13 25 33 35 44 37 40 101
192 112 269 4 21 8 42 11 46 16 26 16 146 0 217 -19 89 -28 111 -67 170 -15
23 -28 46 -28 51 0 5 -32 37 -71 71 -39 33 -67 61 -63 61 18 0 -13 19 -37 24
-36 6 -68 27 -63 41 5 13 -37 35 -66 35 -11 0 -20 3 -20 8 0 4 -16 7 -36 6
-24 -1 -42 4 -56 18 -13 13 -29 18 -44 15 -14 -2 -68 1 -122 8 -53 7 -100 11
-103 9 -11 -6 -163 -6 -179 0 -8 3 -23 1 -32 -4z"/>
<path d="M3185 3491 c4 -7 8 -23 9 -35 1 -14 7 -20 19 -18 9 2 17 -3 17 -9 0
-7 7 -20 16 -30 14 -16 14 -18 -4 -28 -11 -6 -22 -7 -26 -4 -3 3 -6 1 -6 -6 0
-6 7 -14 15 -17 10 -4 12 -15 9 -33 -4 -19 -1 -30 8 -33 9 -4 13 -22 12 -55
-1 -43 3 -52 24 -66 l25 -15 -22 -11 c-15 -9 -20 -18 -16 -32 4 -11 2 -19 -4
-19 -16 0 -13 -25 3 -39 11 -9 15 -9 19 1 4 9 6 8 6 -3 1 -19 31 -48 31 -30 0
6 6 11 13 11 7 0 14 -14 15 -32 3 -32 2 -32 -13 -13 -16 19 -16 19 -11 1 4
-12 0 -24 -14 -33 -21 -14 -28 -53 -10 -53 6 0 10 5 10 11 0 5 5 7 11 4 6 -5
4 -12 -8 -20 -17 -13 -17 -16 -1 -44 9 -16 12 -31 7 -33 -6 -2 -5 -23 2 -55 7
-29 16 -50 20 -48 18 12 16 -26 -3 -39 l-21 -15 26 -40 c15 -22 27 -53 27 -69
0 -15 6 -37 14 -47 13 -18 15 -17 47 16 19 20 41 40 50 45 24 14 49 89 49 149
0 32 4 55 10 55 7 0 8 13 5 34 -7 32 7 57 20 37 3 -6 13 -7 21 -4 13 5 11 10
-10 28 -14 12 -23 25 -20 28 8 7 -18 67 -28 67 -5 0 -8 7 -8 15 0 8 4 15 9 15
6 0 6 13 -1 33 -5 17 -10 39 -10 47 0 27 -19 80 -27 75 -12 -7 -30 41 -24 64
4 15 1 21 -10 21 -10 0 -13 6 -10 20 4 13 -1 22 -13 27 -25 9 -36 26 -22 35
23 13 -8 53 -51 68 -28 9 -41 19 -41 32 0 10 -4 19 -10 19 -5 1 -14 3 -20 4
-5 1 -14 3 -20 4 -5 0 -10 6 -10 12 0 6 9 8 23 4 17 -6 19 -4 11 5 -6 6 -18
12 -27 14 -8 1 -22 8 -31 15 -13 11 -16 11 -16 1 0 -9 -7 -7 -22 6 -12 10 -18
13 -13 5z m109 -416 c-4 -8 -8 -15 -10 -15 -2 0 -4 7 -4 15 0 8 4 15 10 15 5
0 7 -7 4 -15z"/>
<path d="M4002 1860 c-132 -31 -201 -192 -138 -326 72 -155 285 -181 381 -45
27 39 30 50 30 119 -1 59 -6 86 -22 117 -52 99 -160 157 -251 135z m121 -91
c18 -10 37 -48 37 -74 0 -7 -11 -27 -25 -43 l-25 -30 40 -51 c22 -28 40 -52
40 -55 0 -2 -8 -6 -19 -9 -14 -3 -29 10 -60 53 -38 52 -45 57 -69 50 -28 -7
-29 -8 -16 -87 5 -35 3 -43 -9 -43 -9 0 -18 8 -21 18 -7 24 -48 234 -50 252
-2 32 126 46 177 19z"/>
<path d="M3993 1742 c-9 -5 -9 -20 -1 -55 10 -47 10 -48 41 -42 66 13 87 26
87 54 0 15 -5 32 -12 39 -13 13 -96 16 -115 4z"/>
<path d="M880 1606 c0 -2 7 -6 15 -10 8 -3 15 -1 15 4 0 6 -7 10 -15 10 -8 0
-15 -2 -15 -4z"/>
<path d="M620 1376 c0 -2 7 -6 15 -10 8 -3 15 -1 15 4 0 6 -7 10 -15 10 -8 0
-15 -2 -15 -4z"/>
<path d="M3190 1250 c0 -5 5 -10 11 -10 5 0 7 5 4 10 -3 6 -8 10 -11 10 -2 0
-4 -4 -4 -10z"/>
<path d="M3120 1165 c0 -8 4 -15 8 -15 5 0 9 7 9 15 0 8 -4 15 -9 15 -4 0 -8
-7 -8 -15z"/>
<path d="M3148 779 c-10 -5 -18 -16 -18 -23 0 -8 -7 -20 -16 -27 -13 -11 -17
-10 -25 4 -10 17 -39 24 -39 9 0 -5 8 -16 18 -25 16 -15 21 -14 62 12 25 15
51 35 59 44 12 15 11 17 -5 17 -11 0 -27 -5 -36 -11z"/>
<path d="M2974 680 c-4 -16 -10 -27 -15 -24 -5 3 -9 1 -9 -5 0 -5 -3 -16 -6
-25 -5 -13 -2 -13 20 -3 21 10 26 19 26 50 0 45 -8 48 -16 7z"/>
<path d="M3017 683 c-11 -11 -8 -20 7 -20 8 0 12 6 9 14 -6 15 -7 15 -16 6z"/>
<path d="M2842 595 c-7 -14 -27 -32 -45 -40 -30 -13 -30 -14 -7 -14 29 0 60
20 60 40 0 11 2 11 10 -1 9 -13 10 -13 10 0 0 8 -4 21 -8 28 -6 9 -12 5 -20
-13z"/>
<path d="M2910 611 c0 -6 -7 -11 -15 -11 -8 0 -15 -5 -15 -10 0 -7 8 -7 23 1
30 16 30 16 18 24 -6 3 -11 1 -11 -4z"/>
</g>
</svg>
