<?xml version="1.0" standalone="no"?>
<!DOCTYPE svg PUBLIC "-//W3C//DTD SVG 20010904//EN"
 "http://www.w3.org/TR/2001/REC-SVG-20010904/DTD/svg10.dtd">
<svg version="1.0" xmlns="http://www.w3.org/2000/svg"
 width="900.000000pt" height="900.000000pt" viewBox="0 0 900.000000 900.000000"
 preserveAspectRatio="xMidYMid meet">

<g transform="translate(0.000000,900.000000) scale(0.100000,-0.100000)"
fill="#000000" stroke="none">
<path d="M4125 8950 c-170 -26 -335 -65 -520 -120 -169 -51 -466 -169 -497
-197 -10 -9 -25 -40 -34 -70 -20 -67 -82 -161 -142 -213 -57 -50 -184 -113
-271 -135 -36 -9 -105 -19 -154 -22 l-89 -6 6 -28 c15 -75 111 -165 261 -245
l85 -46 -17 -30 c-58 -101 -256 -191 -476 -218 -100 -12 -127 -21 -180 -57
-40 -28 -73 -74 -92 -131 -12 -34 -11 -37 51 -128 75 -111 99 -182 115 -340
14 -138 2 -350 -37 -644 -31 -232 -29 -418 6 -585 73 -350 271 -711 543 -992
l80 -82 -2 -104 c-4 -205 53 -433 165 -660 43 -87 43 -88 37 -172 -12 -164 39
-352 159 -595 l72 -145 130 -130 c142 -142 295 -262 482 -378 79 -49 120 -81
122 -94 3 -19 -5 -20 -105 -27 -126 -7 -206 -26 -238 -56 -21 -20 -22 -30 -27
-218 -7 -236 -3 -252 69 -284 45 -20 58 -21 255 -14 199 6 376 19 464 32 79
12 68 -29 -73 -265 -159 -265 -309 -456 -552 -704 -129 -131 -154 -161 -145
-175 15 -26 131 -79 235 -107 147 -39 142 -40 250 73 183 190 331 396 409 566
25 53 48 96 52 96 17 0 20 -92 15 -414 -6 -356 -16 -465 -47 -529 -18 -37 -18
-39 0 -57 24 -24 113 -56 250 -89 176 -43 196 -46 206 -24 4 10 10 116 12 235
7 425 -58 1009 -143 1283 -35 114 -37 111 43 118 92 9 240 8 342 -3 262 -28
297 -25 326 32 19 36 31 408 15 451 -18 47 -62 61 -204 65 -70 2 -157 -1 -194
-8 -73 -12 -102 -2 -62 22 13 8 78 46 144 85 225 133 411 282 562 453 194 218
291 412 372 741 47 190 63 323 64 515 0 203 6 220 76 215 51 -3 120 28 157 72
15 18 47 75 72 127 24 52 80 171 124 265 218 463 301 721 301 930 0 159 -35
237 -129 286 -52 27 -50 6 -18 199 25 149 25 521 1 680 -75 486 -256 875 -577
1238 -272 308 -775 596 -1240 711 -223 55 -281 62 -520 66 -186 4 -246 1 -345
-15z m565 -191 c516 -64 1015 -296 1312 -608 309 -324 463 -646 529 -1106 18
-121 18 -531 1 -606 -13 -58 -45 -100 -62 -83 -5 5 -27 59 -48 119 -94 262
-265 653 -289 662 -22 8 -26 -3 -24 -59 1 -29 5 -138 9 -243 l7 -190 43 -85
c23 -47 58 -114 77 -150 39 -71 53 -136 57 -250 l3 -75 -45 0 c-25 0 -103 12
-175 25 -125 23 -148 24 -565 25 -379 0 -445 -2 -510 -17 -83 -20 -190 -70
-264 -123 -52 -38 -69 -40 -160 -25 -55 9 -94 6 -213 -16 -50 -9 -73 0 -159
66 -159 123 -277 160 -589 186 -151 12 -256 15 -428 10 -169 -5 -232 -4 -243
5 -17 14 -19 131 -3 178 8 21 30 45 69 71 65 44 63 39 105 265 61 327 192 601
375 786 122 123 223 159 455 159 157 0 275 -22 401 -75 139 -58 140 -58 229
15 47 40 75 70 75 83 0 41 -181 179 -344 262 -206 104 -332 134 -596 142 -213
6 -293 -1 -506 -44 -134 -27 -164 -26 -164 3 0 59 350 276 540 335 92 28 102
35 98 68 -4 30 -28 38 -125 40 -70 1 -79 12 -40 49 76 71 434 169 733 201 117
12 337 13 434 0z m-1142 -948 c6 -1 12 -8 12 -16 0 -9 -33 -31 -84 -55 -46
-22 -111 -60 -143 -84 -123 -93 -269 -269 -341 -411 -11 -23 -42 -61 -69 -85
-152 -142 -168 -161 -202 -255 -74 -203 -119 -431 -128 -650 -3 -77 -10 -150
-14 -162 -10 -27 -53 -50 -107 -59 -34 -5 -42 -3 -52 15 -51 97 -53 442 -4
786 24 168 17 215 -58 362 l-62 123 23 24 c19 20 32 24 84 24 67 0 197 37 282
79 28 14 118 69 200 121 191 122 268 163 380 202 81 29 196 49 250 44 11 -1
26 -3 33 -3z m-678 -1801 c6 -12 10 -35 8 -53 l-3 -32 -87 -3 -88 -3 0 50 c0
49 1 50 33 54 89 11 126 7 137 -13z m430 -25 c15 -19 1 -39 -44 -62 -17 -9
-72 -42 -122 -74 -61 -40 -101 -59 -122 -59 -68 0 -63 80 8 144 43 39 54 43
150 55 99 13 116 12 130 -4z m2818 -23 c5 -50 -11 -62 -83 -62 -88 0 -95 4
-95 56 l0 45 88 -3 87 -3 3 -33z m-349 2 c23 -9 50 -29 61 -44 39 -55 16 -139
-34 -124 -28 8 -91 49 -146 95 -25 21 -56 47 -70 58 -21 18 -23 22 -10 31 20
15 148 5 199 -16z m-2032 -24 c41 -18 87 -73 80 -95 -2 -6 -39 -9 -93 -7 -106
5 -172 -10 -303 -69 -96 -42 -170 -54 -193 -31 -17 17 0 32 82 74 36 19 95 51
132 71 135 77 218 93 295 57z m1708 -39 c22 -10 76 -51 120 -91 44 -40 97 -84
118 -97 45 -28 43 -48 -4 -47 -44 1 -95 25 -176 85 -89 64 -137 75 -244 55
-45 -8 -86 -13 -90 -10 -28 17 13 63 88 100 59 29 132 31 188 5z m861 -36 c13
-20 19 -67 26 -213 5 -103 11 -193 13 -199 8 -26 43 -12 84 32 50 54 53 91 16
165 -14 27 -25 58 -25 69 0 26 51 78 85 87 149 37 176 -237 55 -581 -17 -49
-72 -173 -122 -275 -49 -102 -105 -230 -123 -285 -18 -55 -39 -104 -48 -109
-22 -14 -44 0 -52 33 -9 41 -31 39 -49 -3 -8 -19 -34 -64 -59 -99 l-44 -65 -7
-157 c-17 -393 -91 -675 -240 -905 -113 -174 -372 -397 -595 -511 -98 -50
-135 -48 -193 8 -57 56 -69 43 -62 -65 8 -109 -3 -137 -105 -272 -88 -115
-120 -176 -128 -241 -13 -106 -66 -83 -269 117 -157 156 -225 244 -271 356
-41 98 -37 205 12 368 31 101 39 145 42 230 3 58 0 125 -6 150 -11 51 -2 71
27 54 9 -6 39 -43 65 -82 26 -40 52 -70 57 -67 33 20 36 194 5 242 -9 13 -38
29 -70 39 -54 17 -95 45 -95 64 0 18 75 59 140 75 58 15 80 16 203 5 176 -16
315 -8 432 25 50 14 118 33 153 42 l63 18 56 -30 c70 -36 83 -64 83 -182 0
-91 11 -158 28 -175 17 -17 52 2 76 40 13 20 32 73 41 117 36 164 43 182 100
246 33 37 63 83 76 117 26 71 45 244 35 334 -10 88 -35 124 -116 167 -80 43
-144 107 -237 236 -83 117 -127 161 -207 209 -63 38 -140 56 -158 38 -8 -8 -8
-31 2 -83 17 -90 9 -107 -79 -160 -77 -47 -156 -77 -234 -91 -97 -17 -241 26
-337 102 -49 39 -106 124 -121 180 -11 43 -9 56 31 195 39 134 44 166 51 300
11 233 47 304 164 326 70 13 120 2 151 -33 12 -13 33 -63 49 -112 22 -70 37
-98 70 -132 48 -50 66 -50 122 2 37 35 38 40 9 106 -26 60 -5 64 91 17 147
-72 265 -84 469 -48 137 23 148 21 191 -43 24 -36 36 -44 73 -51 109 -20 120
-25 120 -60 0 -49 -44 -133 -98 -185 -49 -48 -91 -70 -169 -91 -50 -14 -53
-28 -15 -66 24 -25 32 -27 79 -22 108 11 201 73 276 184 52 77 91 185 132 368
14 66 34 131 43 145 18 26 173 109 204 110 10 0 25 -11 34 -25z m-3704 -105
c4 -52 17 -139 28 -193 23 -104 19 -127 -21 -127 -50 0 -175 331 -142 376 12
16 85 44 108 41 18 -2 21 -12 27 -97z m1098 -135 c108 -19 196 -19 250 0 84
30 100 16 50 -42 -36 -41 -37 -57 -5 -99 30 -39 31 -65 6 -120 -54 -118 -193
-194 -356 -194 -79 0 -110 -19 -101 -63 16 -80 75 -91 270 -51 l29 6 -23 -38
c-13 -20 -34 -65 -46 -98 -21 -60 -22 -60 -90 -89 -38 -16 -107 -54 -153 -85
-46 -30 -102 -62 -123 -69 -78 -27 -146 12 -240 137 -90 118 -166 300 -126
300 9 0 42 -16 74 -35 32 -19 70 -35 84 -35 35 0 62 30 63 71 2 29 -4 37 -54
70 -75 50 -151 136 -190 214 -41 84 -36 105 32 134 47 21 52 21 72 6 68 -49
114 -75 134 -75 16 0 40 17 70 50 103 112 192 137 373 105z m429 -579 c8 -9 8
-21 0 -44 -10 -30 -8 -96 6 -188 6 -36 4 -42 -14 -47 -35 -9 -84 24 -108 73
-36 70 -28 147 19 198 24 25 79 30 97 8z m1022 -353 c22 -20 69 -80 104 -133
76 -116 134 -172 202 -194 69 -23 82 -63 31 -95 -46 -28 -92 -30 -291 -11
-500 49 -839 48 -1156 -4 -151 -25 -202 -25 -253 1 -30 14 -52 48 -43 63 3 5
39 25 80 45 57 27 94 55 158 119 74 75 88 85 130 91 61 9 107 0 176 -36 118
-61 313 -88 386 -53 18 8 51 37 73 63 33 39 51 51 102 66 34 10 94 40 133 67
88 59 113 60 168 11z m-1716 -308 c20 -19 25 -34 25 -77 0 -132 66 -470 120
-610 32 -87 80 -153 109 -153 20 0 29 11 51 64 31 73 57 99 76 79 7 -7 28 -75
48 -150 20 -75 45 -161 56 -190 27 -70 25 -94 -6 -114 -22 -15 -34 -16 -85 -6
-130 24 -271 121 -385 265 -122 155 -251 455 -261 613 -10 137 48 254 142 286
67 23 82 22 110 -7z m1397 -316 c207 -15 219 -29 59 -69 -94 -24 -250 -39
-414 -41 -98 -1 -109 1 -159 28 -35 18 -54 35 -56 50 -3 20 2 22 85 28 48 3
93 8 98 10 22 8 244 4 387 -6z"/>
<path d="M5303 1743 c13 -3 17 -15 17 -49 0 -24 5 -44 10 -44 6 0 10 18 10 40
0 27 6 42 18 49 13 8 7 10 -28 10 -25 -1 -37 -3 -27 -6z"/>
<path d="M5390 1700 c0 -57 20 -69 21 -12 l1 37 12 -34 c16 -46 31 -49 43 -9
l11 33 1 -32 c2 -54 21 -37 21 17 0 59 -21 69 -40 18 l-11 -33 -14 33 c-22 51
-45 42 -45 -18z"/>
</g>
</svg>
