<?xml version="1.0" standalone="no"?>
<!DOCTYPE svg PUBLIC "-//W3C//DTD SVG 20010904//EN"
 "http://www.w3.org/TR/2001/REC-SVG-20010904/DTD/svg10.dtd">
<svg version="1.0" xmlns="http://www.w3.org/2000/svg"
 width="225.000000pt" height="225.000000pt" viewBox="0 0 225.000000 225.000000"
 preserveAspectRatio="xMidYMid meet">
<metadata>
Created by potrace 1.16, written by Peter Selinger 2001-2019
</metadata>
<g transform="translate(0.000000,225.000000) scale(0.100000,-0.100000)"
fill="#000000" stroke="none">
<path d="M0 1125 l0 -1125 1125 0 1125 0 0 1125 0 1125 -1125 0 -1125 0 0
-1125z m1011 1019 c30 -9 75 -27 100 -39 63 -32 161 -140 199 -220 32 -67 38
-73 57 -54 8 8 20 -2 43 -35 32 -47 100 -188 100 -208 0 -6 17 -34 37 -62 21
-28 52 -78 69 -111 l32 -59 45 3 c52 3 82 -19 73 -54 -5 -19 -2 -22 19 -17 48
9 70 -33 38 -72 -10 -12 2 -3 25 19 l42 39 0 -50 c0 -65 -24 -154 -53 -202
-25 -39 -91 -103 -125 -121 -15 -8 -21 -24 -24 -65 -10 -122 -124 -269 -267
-345 l-64 -34 57 -49 c31 -28 63 -63 71 -79 35 -66 2 -129 -66 -129 -46 0 -75
23 -167 132 l-67 79 -84 5 -84 4 -56 -63 c-121 -136 -180 -177 -237 -163 -68
17 -85 94 -36 162 16 21 55 59 87 84 l58 45 -29 20 c-16 11 -63 53 -105 95
-79 78 -140 181 -154 261 -4 24 -27 59 -67 105 -122 139 -150 206 -111 264 27
42 122 130 151 141 34 13 65 5 117 -31 l43 -29 25 37 c14 20 43 56 65 78 74
76 101 157 83 249 -5 27 -8 51 -6 53 7 8 85 -49 112 -83 l30 -36 25 58 c48
107 61 228 34 316 -7 25 -32 72 -55 104 -37 53 -47 73 -38 73 2 0 28 -7 58
-16z"/>
<path d="M515 1321 c-17 -10 -51 -41 -77 -69 -74 -79 -68 -100 79 -270 42 -47
59 -76 70 -120 33 -127 138 -261 260 -333 l62 -36 -69 -53 c-102 -77 -142
-124 -138 -163 2 -24 10 -34 30 -41 38 -13 87 22 184 132 l79 90 101 1 101 1
68 -81 c108 -127 123 -141 159 -137 24 2 32 8 34 26 5 33 -23 71 -107 143 -71
61 -73 63 -50 72 171 68 284 166 330 287 27 72 26 90 -6 60 -34 -32 -39 -21
-16 32 15 36 28 50 67 68 53 26 115 84 138 128 9 17 19 49 22 73 l7 44 -81
-74 c-45 -40 -85 -77 -88 -82 -3 -5 -10 -9 -15 -9 -7 0 -8 15 -4 42 6 34 21
58 71 112 35 37 64 73 64 78 0 10 -71 -36 -139 -91 -25 -20 -42 -31 -38 -25 4
7 -1 18 -10 25 -15 12 -16 12 -10 -3 4 -12 2 -15 -9 -11 -15 5 -8 19 31 59 5
5 35 36 65 68 l55 58 -58 -6 c-72 -8 -120 -32 -177 -88 -24 -24 -40 -37 -35
-29 5 10 4 12 -3 7 -7 -4 -12 -16 -12 -27 0 -18 -2 -18 -28 -5 -24 12 -30 12
-48 -3 -11 -9 -19 -22 -16 -29 2 -7 0 -11 -6 -10 -14 5 -76 -81 -95 -134 -13
-34 -18 -71 -16 -133 2 -95 -4 -107 -85 -167 l-39 -28 -24 22 c-13 12 -23 16
-23 9 0 -6 6 -14 14 -17 8 -3 17 -13 21 -22 4 -10 -6 -5 -24 12 -17 16 -28 33
-25 38 3 5 2 8 -3 7 -19 -5 -61 23 -108 70 l-49 51 13 61 c14 71 56 151 106
202 24 24 33 42 29 54 -4 12 -3 14 3 6 6 -9 14 -4 28 20 17 30 17 31 1 17 -20
-16 -54 -21 -137 -20 -47 1 -57 -2 -65 -20 -9 -21 -9 -21 -29 -1 -11 11 -26
27 -33 36 -14 17 -36 17 -30 0 2 -6 6 -9 9 -8 11 4 53 -47 45 -54 -4 -4 -10
-3 -14 2 -4 6 -24 23 -44 38 -21 15 -38 35 -38 43 0 7 -6 14 -14 14 -7 0 -42
22 -77 49 -79 60 -96 66 -134 42z m985 -466 c0 -48 -19 -106 -44 -130 -8 -8
-16 -19 -18 -25 -2 -6 -18 -13 -35 -15 -24 -3 -33 0 -36 13 -3 9 -5 4 -6 -13
-1 -20 -4 -26 -10 -17 -8 13 -50 9 -76 -7 -19 -11 -53 -7 -48 6 3 7 9 11 13 8
5 -3 10 2 12 10 3 15 226 214 241 215 4 0 7 -20 7 -45z"/>
</g>
</svg>
